<!--
  Licensed to the Apache Software Foundation (ASF) under one
  or more contributor license agreements.  See the NOTICE file
  distributed with this work for additional information
  regarding copyright ownership.  The ASF licenses this file
  to you under the Apache License, Version 2.0 (the
  "License"); you may not use this file except in compliance
  with the License.  You may obtain a copy of the License at
    http://www.apache.org/licenses/LICENSE-2.0
  Unless required by applicable law or agreed to in writing,
  software distributed under the License is distributed on an
  "AS IS" BASIS, WITHOUT WARRANTIES OR CONDITIONS OF ANY
  KIND, either express or implied.  See the License for the
  specific language governing permissions and limitations
  under the License.
-->
<svg width="14" height="14" viewBox="0 0 14 14" fill="none" xmlns="http://www.w3.org/2000/svg">
<path d="M5.55723 0.355985C5.63225 0.381505 5.70553 0.411859 5.7766 0.446852L6.6318 0.867886C6.86387 0.982152 7.13587 0.982152 7.36793 0.867886L8.22313 0.446852C9.13146 -0.000387788 10.2305 0.373452 10.6777 1.28184L10.7267 1.39006L10.7685 1.50122L11.0755 2.40362C11.1589 2.64853 11.3512 2.84087 11.5961 2.92418L12.4985 3.23115C13.4571 3.55723 13.9698 4.59866 13.6437 5.55723C13.6182 5.63225 13.5879 5.70553 13.5529 5.7766L13.1318 6.6318C13.0175 6.86387 13.0175 7.13587 13.1318 7.36793L13.5529 8.22313C14.0001 9.13146 13.6263 10.2305 12.7179 10.6777C12.6468 10.7127 12.5735 10.7431 12.4985 10.7685L11.5961 11.0755C11.3512 11.1589 11.1589 11.3512 11.0755 11.5961L10.7685 12.4985C10.4425 13.4571 9.40107 13.9698 8.44247 13.6437C8.36747 13.6182 8.2942 13.5879 8.22313 13.5529L7.36793 13.1318C7.13587 13.0175 6.86387 13.0175 6.6318 13.1318L5.7766 13.5529C4.86822 14.0001 3.76926 13.6263 3.32202 12.7179C3.28702 12.6468 3.25667 12.5735 3.23115 12.4985L2.92418 11.5961C2.84087 11.3512 2.64853 11.1589 2.40362 11.0755L1.50122 10.7685C0.542639 10.4425 0.0299055 9.40107 0.355985 8.44247C0.381505 8.36747 0.411859 8.2942 0.446852 8.22313L0.867886 7.36793C0.982152 7.13587 0.982152 6.86387 0.867886 6.6318L0.446852 5.7766C-0.000387788 4.86822 0.373452 3.76926 1.28184 3.32202C1.35293 3.28702 1.42621 3.25667 1.50122 3.23115L2.40362 2.92418C2.64853 2.84087 2.84087 2.64853 2.92418 2.40362L3.23115 1.50122C3.55723 0.542639 4.59866 0.0299055 5.55723 0.355985ZM9.313 4.97964L5.70013 8.59247L4.38397 7.01313C4.20719 6.80093 3.89191 6.77227 3.67977 6.94907C3.46763 7.12587 3.43897 7.44113 3.61575 7.65327L5.28241 9.65327C5.47064 9.87913 5.8122 9.89467 6.02007 9.68673L10.0201 5.68673C10.2153 5.49148 10.2153 5.1749 10.0201 4.97964C9.8248 4.78438 9.50827 4.78438 9.313 4.97964Z" fill="#CFB22E" fill-opacity="0.7"/>
</svg>
