<!--
Licensed to the Apache Software Foundation (ASF) under one
or more contributor license agreements.  See the NOTICE file
distributed with this work for additional information
regarding copyright ownership.  The ASF licenses this file
to you under the Apache License, Version 2.0 (the
"License"); you may not use this file except in compliance
with the License.  You may obtain a copy of the License at

  http://www.apache.org/licenses/LICENSE-2.0

Unless required by applicable law or agreed to in writing,
software distributed under the License is distributed on an
"AS IS" BASIS, WITHOUT WARRANTIES OR CONDITIONS OF ANY
KIND, either express or implied.  See the License for the
specific language governing permissions and limitations
under the License.
-->
<svg width="60" height="60" viewBox="0 0 60 60" fill="none" xmlns="http://www.w3.org/2000/svg">
<g clip-path="url(#clip0_1_132)">
<path fill-rule="evenodd" clip-rule="evenodd" d="M0.012816 25C0 26.4861 0 28.1407 0 30C0 31.8593 0 33.5139 0.012816 35C0.0293961 36.9226 0.0674259 38.5631 0.154655 40C0.30622 42.4967 0.606321 44.3784 1.20053 46.0564C1.82797 47.8283 2.68355 49.4876 3.73284 51C5.07165 52.9297 6.72581 54.6202 8.62385 56C10.2358 57.1718 12.0236 58.1196 13.9436 58.7995C17.3338 60 21.5558 60 30 60C38.4442 60 42.6662 60 46.0564 58.7995C47.9764 58.1196 49.7642 57.1718 51.3762 56C53.2742 54.6202 54.9284 52.9297 56.2672 51C57.3165 49.4876 58.172 47.8283 58.7995 46.0564C59.3937 44.3784 59.6938 42.4967 59.8453 40C59.9326 38.5632 59.9706 36.9227 59.9872 35.0002C60 33.514 60 31.8594 60 30C60 28.1407 60 26.4861 59.9872 25C59.9706 23.0774 59.9326 21.4369 59.8453 20C59.6938 17.5033 59.3937 15.6216 58.7995 13.9436C58.172 12.1717 57.3165 10.5124 56.2672 9C54.9284 7.07031 53.2742 5.37982 51.3762 4C49.7642 2.82817 47.9764 1.88042 46.0564 1.20053C42.6662 0 38.4442 0 30 0C21.5558 0 17.3338 0 13.9436 1.20053C12.0236 1.88042 10.2358 2.82817 8.62385 4C6.72581 5.37982 5.07165 7.07031 3.73284 9C2.68355 10.5124 1.82797 12.1717 1.20053 13.9436C0.606321 15.6216 0.30622 17.5033 0.154655 20C0.0674259 21.4369 0.0293961 23.0774 0.012816 25ZM49.8757 40.4275C50.5045 39.9892 51.0635 39.5678 51.5526 39.1632L47.832 34.2577C47.1332 34.7297 46.3647 35.2017 45.5262 35.6737C44.7227 36.112 43.6571 36.3312 42.3296 36.3312C40.6177 36.3312 39.1679 35.7749 37.9801 34.6623C36.8272 33.5497 36.2508 32.0494 36.2508 30.1614C36.2508 28.3408 36.8098 26.9079 37.9277 25.8627C39.0806 24.7838 40.4605 24.2444 42.0676 24.2444C43.3602 24.2444 44.3908 24.4298 45.1594 24.8007C45.928 25.1378 46.5743 25.4413 47.0983 25.711L50.4521 20.4515C49.439 19.7772 48.2337 19.1535 46.8363 18.5803C45.4738 17.9734 43.7445 17.67 41.6484 17.67C39.5872 17.67 37.753 18.0071 36.146 18.6814C35.0357 19.1577 34.0387 19.7516 33.1549 20.4633V18.4286H25.3992V20.4009C24.4909 19.6255 23.4777 19.0186 22.3598 18.5803C21.2768 18.142 20.0191 17.9229 18.5868 17.9229C17.0146 17.9229 15.5474 18.2263 14.1849 18.8332C12.8573 19.4063 11.7044 20.2323 10.7262 21.3112C9.74804 22.3901 8.97946 23.6881 8.42049 25.2053C7.86152 26.7224 7.58203 28.3913 7.58203 30.2119C7.58203 32.2348 7.86152 34.0217 8.42049 35.5726C8.97946 37.1235 9.74804 38.4215 10.7262 39.4667C11.7044 40.5118 12.8573 41.3041 14.1849 41.8436C15.5474 42.383 17.0146 42.6527 18.5868 42.6527C20.089 42.6527 21.3641 42.3998 22.4122 41.8941C23.4952 41.3884 24.4909 40.6973 25.3992 39.8207V42.0964H33.1549V40.0175C34.1224 40.8095 35.2242 41.4519 36.4604 41.9447C38.0674 42.5516 39.8666 42.855 41.858 42.855C43.0807 42.855 44.1812 42.737 45.1594 42.501C46.1376 42.265 47.011 41.9784 47.7796 41.6413C48.5831 41.2704 49.2818 40.8658 49.8757 40.4275ZM24.4035 34.7129C23.4603 35.8929 22.1327 36.4829 20.4209 36.4829C18.709 36.4829 17.3815 35.9097 16.4382 34.7634C15.4949 33.5834 15.0233 32.0831 15.0233 30.2625C15.0233 28.4756 15.4775 27.009 16.3858 25.8627C17.3291 24.6827 18.6566 24.0927 20.3685 24.0927C21.9406 24.0927 23.2332 24.6153 24.2463 25.6604C25.2944 26.7056 25.8184 28.2396 25.8184 30.2625C25.8184 32.0494 25.3468 33.5328 24.4035 34.7129Z" fill="#3876F6"/>
</g>
<defs>
<clipPath id="clip0_1_132">
<rect width="60" height="60" fill="white"/>
</clipPath>
</defs>
</svg>
