<!--
  Licensed to the Apache Software Foundation (ASF) under one
  or more contributor license agreements.  See the NOTICE file
  distributed with this work for additional information
  regarding copyright ownership.  The ASF licenses this file
  to you under the Apache License, Version 2.0 (the
  "License"); you may not use this file except in compliance
  with the License.  You may obtain a copy of the License at

    http://www.apache.org/licenses/LICENSE-2.0

  Unless required by applicable law or agreed to in writing,
  software distributed under the License is distributed on an
  "AS IS" BASIS, WITHOUT WARRANTIES OR CONDITIONS OF ANY
  KIND, either express or implied.  See the License for the
  specific language governing permissions and limitations
  under the License.
-->
<svg width="16" height="16" viewBox="0 0 16 16" fill="none" xmlns="http://www.w3.org/2000/svg">
<path fill-rule="evenodd" clip-rule="evenodd" d="M11.1293 4.87198C11.4014 5.144 11.4014 5.58503 11.1293 5.85704L8.98557 8.00081L11.1293 10.1456C11.4014 10.4176 11.4014 10.8586 11.1293 11.1306C10.8573 11.4026 10.4163 11.4026 10.1443 11.1306L8.00051 8.98587L5.85576 11.1306C5.58374 11.4026 5.14272 11.4026 4.8707 11.1306C4.59868 10.8586 4.59868 10.4176 4.8707 10.1456L7.01545 8.00081L4.8707 5.85704C4.59868 5.58503 4.59868 5.144 4.8707 4.87198C5.14272 4.59996 5.58374 4.59996 5.85576 4.87198L8.00051 7.01575L10.1443 4.87198C10.4163 4.59996 10.8573 4.59996 11.1293 4.87198Z" fill="#3876F6"/>
</svg>
