<!--
Licensed to the Apache Software Foundation (ASF) under one
or more contributor license agreements.  See the NOTICE file
distributed with this work for additional information
regarding copyright ownership.  The ASF licenses this file
to you under the Apache License, Version 2.0 (the
"License"); you may not use this file except in compliance
with the License.  You may obtain a copy of the License at

  http://www.apache.org/licenses/LICENSE-2.0

Unless required by applicable law or agreed to in writing,
software distributed under the License is distributed on an
"AS IS" BASIS, WITHOUT WARRANTIES OR CONDITIONS OF ANY
KIND, either express or implied.  See the License for the
specific language governing permissions and limitations
under the License.
-->
<svg width="24" height="24" viewBox="0 0 24 24" fill="none" xmlns="http://www.w3.org/2000/svg">
<path fill-rule="evenodd" clip-rule="evenodd" d="M18.6387 12.3175L18.5418 12.3115L13.0837 12.3115C12.6901 12.3115 12.3654 12.606 12.3178 12.9866L12.3118 13.0834V18.5416C12.3118 18.9679 12.6573 19.3135 13.0837 19.3135C13.4772 19.3135 13.8019 19.019 13.8495 18.6384L13.8556 18.5416L13.856 14.9463L19.6335 20.7249C19.9349 21.0263 20.4236 21.0263 20.7251 20.7249C21.0265 20.4234 21.0265 19.9347 20.7251 19.6332L14.9487 13.8557L18.5418 13.8553C18.9353 13.8553 19.2601 13.5608 19.3077 13.1802L19.3137 13.0834C19.3137 12.6899 19.0193 12.3652 18.6387 12.3175Z" fill="#7E84A3"/>
<path fill-rule="evenodd" clip-rule="evenodd" d="M11.682 5.36257L11.688 5.45939L11.688 10.9176C11.688 11.3111 11.3935 11.6358 11.0129 11.6834L10.9161 11.6895H5.45793C5.03162 11.6895 4.68603 11.3439 4.68603 10.9176C4.68603 10.524 4.98049 10.1993 5.3611 10.1517L5.45793 10.1457L9.05322 10.1452L3.27466 4.36776C2.97321 4.06631 2.97321 3.57757 3.27466 3.27613C3.57611 2.97468 4.06485 2.97468 4.36629 3.27612L10.1438 9.05251L10.1442 5.45939C10.1442 5.06588 10.4387 4.74114 10.8193 4.6935L10.9161 4.68749C11.3096 4.68749 11.6344 4.98196 11.682 5.36257Z" fill="#7E84A3"/>
</svg>
 