<!--
Licensed to the Apache Software Foundation (ASF) under one
or more contributor license agreements.  See the NOTICE file
distributed with this work for additional information
regarding copyright ownership.  The ASF licenses this file
to you under the Apache License, Version 2.0 (the
"License"); you may not use this file except in compliance
with the License.  You may obtain a copy of the License at

  http://www.apache.org/licenses/LICENSE-2.0

Unless required by applicable law or agreed to in writing,
software distributed under the License is distributed on an
"AS IS" BASIS, WITHOUT WARRANTIES OR CONDITIONS OF ANY
KIND, either express or implied.  See the License for the
specific language governing permissions and limitations
under the License.
-->
<svg width="24" height="24" viewBox="0 0 24 24" fill="none" xmlns="http://www.w3.org/2000/svg">
<path fill-rule="evenodd" clip-rule="evenodd" d="M14.624 20.9442L14.7209 20.9502L20.179 20.9502C20.5726 20.9502 20.8973 20.6557 20.9449 20.2751L20.9509 20.1783V14.7201C20.9509 14.2938 20.6053 13.9482 20.179 13.9482C19.7855 13.9482 19.4608 14.2427 19.4131 14.6233L19.4071 14.7201L19.4067 18.3154L13.6292 12.5369C13.3278 12.2354 12.839 12.2354 12.5376 12.5369C12.2362 12.8383 12.2362 13.3271 12.5376 13.6285L18.314 19.406L14.7209 19.4064C14.3274 19.4064 14.0026 19.7009 13.955 20.0815L13.949 20.1783C13.949 20.5718 14.2434 20.8966 14.624 20.9442Z" fill="#7E84A3"/>
<path fill-rule="evenodd" clip-rule="evenodd" d="M3.05508 9.37571L3.04906 9.27889L3.04906 3.82072C3.04906 3.4272 3.34353 3.10246 3.72414 3.05483L3.82096 3.04882H9.27913C9.70544 3.04882 10.051 3.39441 10.051 3.82072C10.051 4.21424 9.75657 4.53898 9.37596 4.58661L9.27913 4.59262L5.68384 4.59305L11.4624 10.3705C11.7638 10.672 11.7638 11.1607 11.4624 11.4622C11.161 11.7636 10.6722 11.7636 10.3708 11.4622L4.5933 5.68578L4.59287 9.27889C4.59287 9.67241 4.2984 9.99715 3.91779 10.0448L3.82096 10.0508C3.42745 10.0508 3.10271 9.75632 3.05508 9.37571Z" fill="#7E84A3"/>
</svg>